<?xml version="1.0" encoding="UTF-8"?>
<svg width="512px" height="512px" viewBox="0 0 512 512" version="1.1" xmlns="http://www.w3.org/2000/svg" xmlns:xlink="http://www.w3.org/1999/xlink">
    <!-- Generator: Sketch 47 (45396) - http://www.bohemiancoding.com/sketch -->
    <title>wine-glass-svgrepo-com</title>
    <desc>Created with Sketch.</desc>
    <defs></defs>
    <g id="Page-1" stroke="none" stroke-width="1" fill="none" fill-rule="evenodd">
        <g id="wine-glass-svgrepo-com" fill-rule="nonzero">
            <path d="M256,0 C114.616,0 0,114.616 0,256 C0,397.384 114.616,512 256,512 C397.384,512 512,397.384 512,256 C512,114.616 397.384,0 256,0 Z" id="Shape" fill="#2D4452"></path>
            <path d="M468.596,387.492 C467.964,385.816 467.328,384.3 466.68,382.936 C466.2,381.668 465.716,380.468 465.228,379.388 C464.76,378.136 464.288,376.968 463.812,375.888 C463.14,374.116 462.468,372.512 461.796,371.084 C461.396,370.052 461.016,369.084 460.62,368.176 C459.188,363.18 457.696,358.84 456.18,355.48 C455.548,353.804 454.912,352.288 454.268,350.932 C453.788,349.66 453.304,348.46 452.816,347.376 C452.344,346.124 451.872,344.96 451.396,343.892 C450.724,342.112 450.052,340.504 449.38,339.072 C448.916,337.852 448.46,336.7 447.98,335.656 C447.328,333.932 446.676,332.38 446.02,330.992 C445.552,329.744 445.08,328.576 444.604,327.512 C444.128,326.248 443.648,325.076 443.168,323.984 C442.492,322.192 441.812,320.572 441.136,319.136 C440.692,317.964 440.232,316.864 439.792,315.848 C439.12,314.076 438.448,312.48 437.776,311.052 C437.312,309.816 436.84,308.652 436.36,307.6 C435.884,306.34 435.408,305.176 434.936,304.084 C434.244,302.288 433.564,300.656 432.884,299.2 C432.52,298.248 432.156,297.356 431.8,296.508 C430.364,291.532 428.872,287.204 427.364,283.82 C426.7,282.052 426.032,280.468 425.364,279.052 C424.892,277.804 424.42,276.632 423.948,275.568 C423.304,273.868 422.66,272.332 422.016,270.968 C421.536,269.7 421.052,268.496 420.568,267.42 C420.112,266.188 419.648,265.052 419.172,264 C418.488,262.192 417.804,260.564 417.124,259.108 C416.672,257.916 416.208,256.788 415.748,255.764 C415.088,254.012 414.432,252.44 413.768,251.028 C413.292,249.768 412.812,248.572 412.328,247.5 C411.86,246.26 411.388,245.108 410.912,244.04 C410.236,242.244 409.552,240.624 408.876,239.172 C408.448,238.028 408,236.952 407.564,235.96 C406.884,234.156 406.2,232.536 405.52,231.084 C405.06,229.876 404.604,228.736 404.132,227.696 C403.652,226.416 403.168,225.244 402.684,224.144 C402.336,223.228 401.988,222.344 401.64,221.516 C399.932,215.788 398.184,210.86 396.452,207.172 C396.016,206.028 395.568,204.956 395.14,203.964 C394.46,202.156 393.776,200.536 393.096,199.084 C392.636,197.868 392.172,196.724 391.696,195.68 C391.044,193.952 390.388,192.396 389.732,191.004 C389.264,189.736 388.78,188.536 388.296,187.46 C387.828,186.22 387.356,185.072 386.88,184.004 C386.204,182.212 385.524,180.592 384.848,179.148 C384.404,177.98 383.952,176.88 383.504,175.868 C382.84,174.108 382.176,172.524 381.508,171.104 C381.036,169.856 380.564,168.68 380.088,167.616 C379.616,166.356 379.14,165.196 378.664,164.112 C377.98,162.308 377.296,160.672 376.612,159.216 C376.172,158.056 375.72,156.972 375.284,155.968 C374.608,154.18 373.932,152.568 373.252,151.132 C372.868,150.136 372.5,149.204 372.12,148.324 C370.68,143.316 369.18,138.964 367.664,135.588 C367.192,134.336 366.72,133.18 366.244,132.104 C365.56,130.296 364.876,128.66 364.192,127.208 C363.76,126.052 363.308,124.968 362.868,123.968 C362.192,122.176 361.512,120.56 360.836,119.124 C360.384,117.932 359.928,116.812 359.472,115.788 C358.808,114.036 358.144,112.456 357.48,111.036 C357.024,109.824 356.56,108.68 356.092,107.64 C355.608,106.352 355.12,105.164 354.632,104.056 C353.952,102.256 353.268,100.628 352.592,99.18 C352.148,98.016 351.692,96.928 351.252,95.92 C350.58,94.136 349.9,92.532 349.224,91.096 C348.776,89.892 348.308,88.756 347.844,87.72 C347.36,86.44 346.876,85.264 346.392,84.16 C345.708,82.364 345.028,80.732 344.352,79.284 C343.908,78.116 343.46,77.028 343.016,76.02 C342.336,74.228 341.656,72.604 340.976,71.16 C340.536,69.992 340.076,68.896 339.636,67.884 C338.428,64.684 337.216,62.004 336.012,59.996 L324.012,59.996 L176.012,59.996 C166.452,75.996 157.012,134.64 157.012,159.996 C157.012,175.248 159.144,189.832 163.016,203.344 C164.904,210.516 167.268,217.404 170.08,223.948 C170.624,225.316 171.164,226.672 171.74,228.008 C172.268,229.332 172.8,230.644 173.344,231.936 C173.892,233.328 174.452,234.708 175.04,236.072 C175.572,237.428 176.124,238.776 176.688,240.104 C177.224,241.456 177.772,242.8 178.336,244.128 C178.876,245.496 179.428,246.856 180.004,248.196 C180.536,249.544 181.08,250.884 181.644,252.204 C182.184,253.568 182.728,254.924 183.308,256.264 C183.84,257.616 184.388,258.96 184.956,260.288 C185.48,261.616 186.012,262.932 186.56,264.228 C187.116,265.62 187.664,266.996 188.26,268.356 C188.792,269.712 189.34,271.056 189.896,272.384 C190.444,273.752 190.988,275.112 191.564,276.452 C192.108,277.812 192.648,279.16 193.216,280.488 C193.748,281.836 194.3,283.172 194.856,284.492 C195.22,285.408 195.568,286.34 195.944,287.244 C197.344,291.58 198.944,295.784 200.696,299.864 C201.232,301.228 201.78,302.588 202.356,303.924 C202.892,305.284 203.44,306.628 204.008,307.96 C204.544,309.316 205.092,310.66 205.656,311.984 C206.196,313.352 206.74,314.708 207.32,316.044 C207.852,317.396 208.4,318.732 208.964,320.052 C209.492,321.396 210.032,322.724 210.592,324.036 C211.132,325.412 211.676,326.784 212.264,328.128 C212.804,329.492 213.348,330.844 213.924,332.18 C214.46,333.536 215.008,334.888 215.568,336.216 C216.116,337.576 216.656,338.936 217.228,340.272 C217.768,341.62 218.312,342.96 218.872,344.28 C219.416,345.64 219.956,346.992 220.528,348.324 C221.064,349.684 221.612,351.036 222.184,352.368 C222.704,353.692 223.244,355.008 223.792,356.304 C224.168,357.256 224.532,358.22 224.924,359.16 C226.324,363.488 227.92,367.684 229.668,371.756 C230.208,373.128 230.756,374.488 231.332,375.828 C231.864,377.176 232.416,378.516 232.976,379.84 C233.516,381.212 234.06,382.564 234.64,383.9 C235.16,385.228 235.692,386.536 236.24,387.832 C236.792,389.22 237.344,390.6 237.936,391.96 C238.472,393.32 239.02,394.668 239.592,396 C240.124,397.352 240.672,398.696 241.228,400.02 C241.776,401.392 242.316,402.744 242.892,404.088 C243.432,405.44 243.976,406.776 244.536,408.104 C245.084,409.468 245.624,410.824 246.2,412.164 C246.74,413.516 247.284,414.86 247.848,416.188 C248.372,417.512 248.904,418.828 249.46,420.128 C250.008,421.52 250.556,422.9 251.152,424.26 C251.428,424.96 251.692,425.672 251.976,426.36 L251.976,444 L191.976,444 C189.764,444 187.976,445.792 187.976,448 C187.976,449.056 188.392,449.992 189.06,450.708 C188.924,451.124 188.808,451.54 188.808,452 C188.808,453.38 189.552,454.536 190.612,455.256 C190.556,455.508 190.464,455.732 190.464,456 C190.464,457.38 191.208,458.536 192.268,459.256 C192.212,459.508 192.12,459.732 192.12,460 C192.12,461.38 192.864,462.536 193.924,463.252 C193.864,463.504 193.772,463.736 193.772,464.004 C193.772,465.384 194.516,466.54 195.572,467.26 C195.52,467.512 195.428,467.736 195.428,468.004 C195.428,469.384 196.172,470.54 197.224,471.26 C197.176,471.512 197.084,471.736 197.084,472.004 C197.084,473.384 197.828,474.54 198.88,475.26 C198.832,475.512 198.736,475.736 198.736,476.004 C198.736,477.384 199.484,478.54 200.536,479.26 C200.488,479.512 200.388,479.736 200.388,480.004 C200.388,481.384 201.14,482.54 202.192,483.26 C202.144,483.512 202.044,483.736 202.044,484.004 C202.044,485.384 202.796,486.54 203.848,487.26 C203.8,487.512 203.7,487.736 203.7,488.004 C203.7,489.384 204.452,490.54 205.504,491.26 C205.456,491.512 205.356,491.736 205.356,492.004 C205.356,493.384 206.108,494.54 207.156,495.256 C207.108,495.508 207.008,495.74 207.008,496.008 C207.008,497.388 207.76,498.544 208.812,499.264 C208.764,499.516 208.664,499.74 208.664,500.008 C208.664,501.388 209.416,502.544 210.468,503.264 C210.42,503.516 210.32,503.74 210.32,504.008 C210.32,505.388 211.072,506.544 212.124,507.264 C212.076,507.516 211.976,507.74 211.976,508.008 C211.976,508.064 211.996,508.108 212,508.168 C226.324,510.636 241,512 256,512 C346.448,512 425.884,465.048 471.416,394.236 C470.972,393.112 470.508,392.032 470.056,391.064 C469.58,389.788 469.084,388.58 468.596,387.492 Z" id="Shape" fill="#233540"></path>
            <g id="Group" transform="translate(156.000000, 60.000000)" fill="#F5F5F5">
                <path d="M164,384 L104,384 L104,224 C104,221.792 102.212,220 100,220 C97.788,220 96,221.792 96,224 L96,384 L36,384 C33.788,384 32,385.792 32,388 C32,390.208 33.788,392 36,392 L164,392 C166.212,392 168,390.208 168,388 C168,385.792 166.212,384 164,384 Z" id="Shape"></path>
                <path d="M200,100 C200,74.644 189.588,16 180,0 L20,0 C10.44,16 0,74.644 0,100 L200,100 Z" id="Shape"></path>
            </g>
            <path d="M336,60 L324,60 C333.588,76 344,134.644 344,160 L356,160 C356,134.644 345.588,76 336,60 Z" id="Shape" fill="#E6E6E6"></path>
            <path d="M156,160 C156,231.324 201.964,288 256,288 C310.072,288 356,231.324 356,160 L156,160 Z" id="Shape" fill="#F8E71C"></path>
            <path d="M344,160 C344,228.668 301.42,283.736 250,287.744 C251.988,287.9 253.988,288 256,288 C310.072,288 356,231.324 356,160 L344,160 Z" id="Shape" fill="#BB9832"></path>
            <g id="Group" transform="translate(173.000000, 109.000000)" fill="#FFFFFF">
                <path d="M1.984,19 L34.388,19 C35.276,13.544 36.276,7.992 37.336,2.668 L5.096,0.768 C3.94,6.796 2.884,12.968 1.984,19 Z" id="Shape"></path>
                <path d="M38.096,89.792 L9.68,104.744 C16.828,121.668 27.164,136.04 39.528,146.272 L64.308,124.792 C53.84,117.892 44.264,105.612 38.096,89.792 Z" id="Shape" opacity="0.2"></path>
                <path d="M35.232,81.16 C33.98,76.816 32.944,72.3 32.228,67.568 L0.192,69.256 C1.108,76.304 2.516,83.152 4.4,89.724 L35.232,81.16 Z" id="Shape" opacity="0.2"></path>
            </g>
        </g>
    </g>
</svg>